HIERARCHY
ROOT hip
{
  OFFSET 0 0 0
  CHANNELS 6 Xposition Yposition Zposition Zrotation Yrotation Xrotation
  JOINT abdomen
  {
    OFFSET 0 20.6881 -0.73152
    CHANNELS 3 Zrotation Xrotation Yrotation
    JOINT chest
    {
      OFFSET 0 11.7043 -0.48768
      CHANNELS 3 Zrotation Xrotation Yrotation
      JOINT neck
      {
        OFFSET 0 22.1894 -2.19456
        CHANNELS 3 Zrotation Xrotation Yrotation
        JOINT head
        {
          OFFSET -0.24384 7.07133 1.2192
          CHANNELS 3 Zrotation Xrotation Yrotation
          JOINT leftEye
          {
            OFFSET 4.14528 8.04674 8.04672
            CHANNELS 3 Zrotation Xrotation Yrotation
            End Site
            {
              OFFSET 1 0 0
            }
          }
          JOINT rightEye
          {
            OFFSET -3.6576 8.04674 8.04672
            CHANNELS 3 Zrotation Xrotation Yrotation
            End Site
            {
              OFFSET 1 0 0
            }
          }
        }
      }
      JOINT rCollar
      {
        OFFSET -2.68224 19.2634 -4.8768
        CHANNELS 3 Zrotation Xrotation Yrotation
        JOINT rShldr
        {
          OFFSET -8.77824 -1.95073 1.46304
          CHANNELS 3 Zrotation Xrotation Yrotation
          JOINT rForeArm
          {
            OFFSET -28.1742 -1.7115 0.48768
            CHANNELS 3 Zrotation Xrotation Yrotation
            JOINT rHand
            {
              OFFSET -22.5879 0.773209 7.07136
              CHANNELS 3 Zrotation Xrotation Yrotation
              JOINT rThumb1
              {
                OFFSET -1.2192 -0.487915 3.41376
                CHANNELS 3 Zrotation Xrotation Yrotation
                JOINT rThumb2
                {
                  OFFSET -3.37035 -0.52449 3.41376
                  CHANNELS 3 Zrotation Xrotation Yrotation
                  End Site
                  {
                    OFFSET -1.78271 -1.18214 1.43049
                  }
                }
              }
              JOINT rIndex1
              {
                OFFSET -7.75947 0.938293 5.60832
                CHANNELS 3 Zrotation Xrotation Yrotation
                JOINT rIndex2
                {
                  OFFSET -2.54057 -0.884171 1.56538
                  CHANNELS 3 Zrotation Xrotation Yrotation
                  End Site
                  {
                    OFFSET -1.62519 -0.234802 1.16502
                  }
                }
              }
              JOINT rMid1
              {
                OFFSET -8.24714 1.18213 3.41376
                CHANNELS 3 Zrotation Xrotation Yrotation
                JOINT rMid2
                {
                  OFFSET -3.10165 -0.590103 1.0647
                  CHANNELS 3 Zrotation Xrotation Yrotation
                  End Site
                  {
                    OFFSET -2.48547 -0.328903 0.83742
                  }
                }
              }
              JOINT rRing1
              {
                OFFSET -8.82822 0.546677 1.51678
                CHANNELS 3 Zrotation Xrotation Yrotation
                JOINT rRing2
                {
                  OFFSET -2.60934 -0.819778 -0.0198488
                  CHANNELS 3 Zrotation Xrotation Yrotation
                  End Site
                  {
                    OFFSET -2.33842 -0.294052 0.168128
                  }
                }
              }
              JOINT rPinky1
              {
                OFFSET -8.27202 -0.0477905 -0.4584
                CHANNELS 3 Zrotation Xrotation Yrotation
                JOINT rPinky2
                {
                  OFFSET -1.82734 -0.647385 -0.700984
                  CHANNELS 3 Zrotation Xrotation Yrotation
                  End Site
                  {
                    OFFSET -1.69225 -0.51767 -0.607171
                  }
                }
              }
            }
          }
        }
      }
      JOINT lCollar
      {
        OFFSET 2.68224 19.2634 -4.8768
        CHANNELS 3 Zrotation Xrotation Yrotation
        JOINT lShldr
        {
          OFFSET 8.77824 -1.95073 1.46304
          CHANNELS 3 Zrotation Xrotation Yrotation
          JOINT lForeArm
          {
            OFFSET 28.1742 -1.7115 0.48768
            CHANNELS 3 Zrotation Xrotation Yrotation
            JOINT lHand
            {
              OFFSET 22.5879 0.773209 7.07136
              CHANNELS 3 Zrotation Xrotation Yrotation
              JOINT lThumb1
              {
                OFFSET 1.2192 -0.487915 3.41376
                CHANNELS 3 Zrotation Xrotation Yrotation
                JOINT lThumb2
                {
                  OFFSET 3.37035 -0.52449 3.41376
                  CHANNELS 3 Zrotation Xrotation Yrotation
                  End Site
                  {
                    OFFSET 1.78271 -1.18214 1.43049
                  }
                }
              }
              JOINT lIndex1
              {
                OFFSET 7.75947 0.938293 5.60832
                CHANNELS 3 Zrotation Xrotation Yrotation
                JOINT lIndex2
                {
                  OFFSET 2.54057 -0.884171 1.56538
                  CHANNELS 3 Zrotation Xrotation Yrotation
                  End Site
                  {
                    OFFSET 1.62519 -0.234802 1.16502
                  }
                }
              }
              JOINT lMid1
              {
                OFFSET 8.24714 1.18213 3.41376
                CHANNELS 3 Zrotation Xrotation Yrotation
                JOINT lMid2
                {
                  OFFSET 3.10165 -0.590103 1.0647
                  CHANNELS 3 Zrotation Xrotation Yrotation
                  End Site
                  {
                    OFFSET 2.48547 -0.328903 0.83742
                  }
                }
              }
              JOINT lRing1
              {
                OFFSET 8.82822 0.546677 1.51678
                CHANNELS 3 Zrotation Xrotation Yrotation
                JOINT lRing2
                {
                  OFFSET 2.60934 -0.819778 -0.0198488
                  CHANNELS 3 Zrotation Xrotation Yrotation
                  End Site
                  {
                    OFFSET 2.33842 -0.294052 0.168128
                  }
                }
              }
              JOINT lPinky1
              {
                OFFSET 8.27202 -0.0477905 -0.4584
                CHANNELS 3 Zrotation Xrotation Yrotation
                JOINT lPinky2
                {
                  OFFSET 1.82734 -0.647385 -0.700984
                  CHANNELS 3 Zrotation Xrotation Yrotation
                  End Site
                  {
                    OFFSET 1.69225 -0.51767 -0.607171
                  }
                }
              }
            }
          }
        }
      }
    }
  }
  JOINT rButtock
  {
    OFFSET -8.77824 4.35084 1.2192
    CHANNELS 3 Zrotation Xrotation Yrotation
    JOINT rThigh
    {
      OFFSET 0 -1.70687 -2.19456
      CHANNELS 3 Zrotation Xrotation Yrotation
      JOINT rShin
      {
        OFFSET 0 -36.8199 0.73152
        CHANNELS 3 Zrotation Xrotation Yrotation
        JOINT rFoot
        {
          OFFSET 0.73152 -45.1104 -5.12064
          CHANNELS 3 Zrotation Xrotation Yrotation
          End Site
          {
            OFFSET -1.1221 -3.69964 12.103
          }
        }
      }
    }
  }
  JOINT lButtock
  {
    OFFSET 8.77824 4.35084 1.2192
    CHANNELS 3 Zrotation Xrotation Yrotation
    JOINT lThigh
    {
      OFFSET 0 -1.70687 -2.19456
      CHANNELS 3 Zrotation Xrotation Yrotation
      JOINT lShin
      {
        OFFSET 0 -36.8199 0.73152
        CHANNELS 3 Zrotation Xrotation Yrotation
        JOINT lFoot
        {
          OFFSET -0.73152 -45.1104 -5.12064
          CHANNELS 3 Zrotation Xrotation Yrotation
          End Site
          {
            OFFSET 1.1221 -3.69964 12.103
          }
        }
      }
    }
  }
}
MOTION
Frames:	7
Frame Time:	0.00833333
155.665 77.4614 -64.4461 -169.811 -73.0005 183.103 9.58437 2.47601 -8.92747 -5.52169 -0.797237 -2.47014 1.2474 13.8588 10.0673 4.83254 -49.1459 22.687 -0.0 0.0 0.0 -0.0 0.0 0.0 -4.00633e-14 2.54859e-13 -5.85865e-13 75.8882 49.5676 5.92089 -26.8537 -25.8666 60.6139 -0.290586 -15.1937 -2.18707 4.83435e-10 2.23749e-09 -4.29826e-09 8.92875e-10 3.86269e-09 -7.41901e-09 4.83442e-10 2.23749e-09 -4.29826e-09 7.73091 5.47488 0.417314 4.83435e-10 2.23749e-09 -4.29825e-09 2.90554 0.965183 0.102902 4.83444e-10 2.23749e-09 -4.29826e-09 10.2786 0.731801 0.0259123 4.83433e-10 2.23749e-09 -4.29825e-09 2.22167 -0.733487 -0.20892 -4.01199e-14 2.54871e-13 -5.86066e-13 -0.149145 58.1946 -77.3733 25.7585 -22.8424 -55.8081 0.0558325 6.71955 -0.948777 -2.27176e-10 -2.89144e-09 6.68023e-10 -3.89501e-10 -4.97799e-09 1.16676e-09 -2.27179e-10 -2.89142e-09 6.68026e-10 -7.73091 5.47488 -0.417314 -2.27173e-10 -2.89144e-09 6.68022e-10 -2.90554 0.965183 -0.102902 -2.27185e-10 -2.89144e-09 6.68016e-10 -10.2786 0.731801 -0.0259123 -2.27175e-10 -2.89144e-09 6.68009e-10 -2.22167 -0.733487 0.20892 -2.03217e-16 0.0 -3.88251e-19 -4.32668 -58.4608 9.61011 -0.845817 55.1401 1.05366 -1.54679 -10.5243 -3.59295 2.03217e-16 0.0 3.88251e-19 -0.277369 -15.5849 24.1681 0.737644 55.9691 -1.68264 -1.80762 -13.2817 -7.5168
154.891 77.3116 -64.617 -170.879 -72.7048 184.343 10.2154 2.87248 -9.06154 -5.57202 -0.684929 -2.49275 1.43823 13.9052 10.2643 4.19581 -49.0769 22.8047 -0.0 0.0 0.0 -0.0 0.0 0.0 1.9733e-14 2.23337e-13 -5.48941e-13 76.1049 48.0802 5.47486 -26.4399 -24.6168 58.6036 -0.25691 -14.3287 -2.05682 5.48857e-10 2.01214e-10 -1.65095e-09 9.73204e-10 3.41223e-10 -2.84427e-09 5.48865e-10 2.01213e-10 -1.65095e-09 7.73091 5.47488 0.417314 5.48856e-10 2.01213e-10 -1.65095e-09 2.90554 0.965183 0.102902 5.48865e-10 2.01212e-10 -1.65095e-09 10.2786 0.731801 0.0259123 5.48852e-10 2.01215e-10 -1.65095e-09 2.22167 -0.733487 -0.20892 1.9668e-14 2.2335e-13 -5.4914e-13 -0.38217 58.1016 -76.9277 25.2797 -21.7211 -53.9356 0.0528287 6.51486 -0.91965 -9.35917e-12 -1.94884e-09 3.64486e-11 -1.33298e-11 -3.35277e-09 7.20966e-11 -9.36007e-12 -1.94882e-09 3.64529e-11 -7.73091 5.47488 -0.417314 -9.35563e-12 -1.94884e-09 3.64452e-11 -2.90554 0.965183 -0.102902 -9.36362e-12 -1.94884e-09 3.64405e-11 -10.2786 0.731801 -0.0259123 -9.35552e-12 -1.94883e-09 3.64324e-11 -2.22167 -0.733487 0.20892 -2.03217e-16 0.0 -3.88251e-19 -4.6415 -58.1976 10.4198 -0.84694 55.0196 1.01344 -1.46599 -10.306 -3.44902 2.03217e-16 0.0 3.88251e-19 1.21465 -16.7834 25.643 0.885517 58.7524 -1.81047 -1.54686 -12.2774 -6.8379
154.117 77.106 -64.7952 -171.884 -72.3727 185.542 10.8014 3.26489 -9.16739 -5.6197 -0.5455 -2.50517 1.62591 13.9978 10.449 3.60576 -49.0671 22.9252 -0.0 0.0 0.0 -0.0 0.0 0.0 8.06e-14 1.82716e-13 -4.90351e-13 76.206 46.5351 5.16352 -25.9639 -23.334 56.5692 -0.22622 -13.4558 -1.92671 5.49502e-10 -1.69066e-09 8.57236e-10 9.43484e-10 -2.9299e-09 1.48933e-09 5.49512e-10 -1.69066e-09 8.57226e-10 7.73091 5.47488 0.417314 5.49501e-10 -1.69066e-09 8.57232e-10 2.90554 0.965183 0.102902 5.4951e-10 -1.69066e-09 8.57229e-10 10.2786 0.731801 0.0259123 5.49496e-10 -1.69066e-09 8.57234e-10 2.22167 -0.733487 -0.20892 8.05268e-14 1.82731e-13 -4.90547e-13 -0.826501 58.025 -76.1262 24.7772 -20.6315 -52.1222 0.0482606 6.22024 -0.877731 1.01245e-10 -1.32081e-09 -4.2459e-10 1.77501e-10 -2.27041e-09 -7.27543e-10 1.01245e-10 -1.3208e-09 -4.24585e-10 -7.73091 5.47488 -0.417314 1.01248e-10 -1.32081e-09 -4.24596e-10 -2.90554 0.965183 -0.102902 1.01244e-10 -1.32081e-09 -4.24599e-10 -10.2786 0.731801 -0.0259123 1.01251e-10 -1.32081e-09 -4.24609e-10 -2.22167 -0.733487 0.20892 -2.03217e-16 0.0 -3.88251e-19 -5.08658 -57.9537 10.9449 -0.851072 54.9566 0.975821 -1.35143 -10.28 -3.16249 2.03217e-16 0.0 3.88251e-19 2.81435 -17.9586 27.1272 1.06554 61.5717 -1.97213 -1.29904 -11.48 -6.04263
153.343 76.8429 -64.9797 -172.786 -71.998 186.645 11.358 3.65576 -9.27446 -5.67739 -0.41249 -2.51762 1.76932 14.1292 10.6278 3.07793 -49.0765 23.0675 -0.0 0.0 0.0 -0.0 0.0 0.0 1.35188e-13 1.23238e-13 -4.61081e-13 76.1914 45.0148 4.93318 -25.4399 -22.0739 54.5551 -0.201829 -12.6948 -1.81423 4.5945e-10 -2.6005e-09 2.36297e-09 7.69405e-10 -4.50231e-09 4.08987e-09 4.59461e-10 -2.6005e-09 2.36295e-09 7.73091 5.47488 0.417314 4.59449e-10 -2.60051e-09 2.36296e-09 2.90554 0.965183 0.102902 4.59458e-10 -2.60051e-09 2.36296e-09 10.2786 0.731801 0.0259123 4.59443e-10 -2.6005e-09 2.36296e-09 2.22167 -0.733487 -0.20892 1.35119e-13 1.23255e-13 -4.6128e-13 -1.62812 58.0511 -74.8303 24.257 -19.5853 -50.4332 0.041616 5.81248 -0.819732 -1.39067e-10 -1.60176e-09 -4.12677e-10 -2.3823e-10 -2.75854e-09 -7.06639e-10 -1.39068e-10 -1.60176e-09 -4.12671e-10 -7.73091 5.47488 -0.417314 -1.39065e-10 -1.60176e-09 -4.12683e-10 -2.90554 0.965183 -0.102902 -1.39066e-10 -1.60176e-09 -4.12686e-10 -10.2786 0.731801 -0.0259123 -1.39059e-10 -1.60176e-09 -4.12696e-10 -2.22167 -0.733487 0.20892 -2.03217e-16 0.0 -3.88251e-19 -5.7595 -57.7644 10.9654 -0.859156 54.9833 0.946146 -1.21754 -10.722 -2.74289 2.03217e-16 0.0 3.88251e-19 4.51014 -19.0529 28.5962 1.28037 64.3289 -2.17014 -1.10811 -10.7731 -5.37496
152.561 76.5325 -65.1563 -173.609 -71.6347 187.667 11.8933 4.02744 -9.42209 -5.74772 -0.27948 -2.54122 1.84694 14.3122 10.8039 2.65366 -49.0932 23.259 -0.0 0.0 0.0 -0.0 0.0 0.0 1.86348e-13 2.90178e-14 -4.93335e-13 76.0407 43.5423 4.83143 -24.8776 -20.8471 52.5115 -0.184128 -12.1097 -1.72817 2.37304e-10 -1.81716e-09 2.34629e-09 3.86017e-10 -3.14595e-09 4.05829e-09 2.37313e-10 -1.81715e-09 2.34628e-09 7.73091 5.47488 0.417314 2.37302e-10 -1.81716e-09 2.34629e-09 2.90554 0.965183 0.102902 2.37311e-10 -1.81716e-09 2.34628e-09 10.2786 0.731801 0.0259123 2.37297e-10 -1.81715e-09 2.34629e-09 2.22167 -0.733487 -0.20892 1.86309e-13 2.904e-14 -4.93543e-13 -2.80141 58.1715 -72.9804 23.75 -18.6339 -48.8868 0.0347736 5.30528 -0.747729 -1.04462e-09 -3.70853e-09 5.20903e-10 -1.80426e-09 -6.40193e-09 9.13316e-10 -1.04463e-09 -3.70854e-09 5.20911e-10 -7.73091 5.47488 -0.417314 -1.04463e-09 -3.70854e-09 5.20898e-10 -2.90554 0.965183 -0.102902 -1.04462e-09 -3.70854e-09 5.20897e-10 -10.2786 0.731801 -0.0259123 -1.04462e-09 -3.70853e-09 5.20886e-10 -2.22167 -0.733487 0.20892 -2.03217e-16 0.0 -3.88251e-19 -6.73546 -57.5842 10.3493 -0.86977 55.0839 0.923766 -1.04217 -11.8415 -2.14073 2.03217e-16 0.0 3.88251e-19 6.2879 -20.0442 30.0254 1.54528 67.0347 -2.41746 -0.941045 -10.2117 -4.73861
151.768 76.1814 -65.3154 -174.4 -71.2754 188.651 12.3978 4.38465 -9.58406 -5.82415 -0.133707 -2.56772 1.8835 14.5457 10.9739 2.31301 -49.1385 23.4827 -0.0 0.0 0.0 -0.0 0.0 0.0 2.36396e-13 -9.03114e-14 -5.53718e-13 75.7841 42.075 4.84896 -24.2668 -19.6165 50.4158 -0.169763 -11.626 -1.65719 -9.16182e-11 5.00567e-11 1.36423e-09 -1.6978e-10 8.54425e-11 2.35736e-09 -9.16123e-11 5.00607e-11 1.36421e-09 7.73091 5.47488 0.417314 -9.16206e-11 5.00524e-11 1.36423e-09 2.90554 0.965183 0.102902 -9.1612e-11 5.00572e-11 1.36422e-09 10.2786 0.731801 0.0259123 -9.16249e-11 5.00575e-11 1.36423e-09 2.22167 -0.733487 -0.20892 2.36404e-13 -9.02839e-14 -5.53938e-13 -4.29513 58.3092 -70.6298 23.2695 -17.7869 -47.4243 0.0284463 4.70436 -0.662636 -2.40234e-09 -7.07133e-09 2.09217e-09 -4.15213e-09 -1.22156e-08 3.63925e-09 -2.40235e-09 -7.07135e-09 2.09218e-09 -7.73091 5.47488 -0.417314 -2.40235e-09 -7.07135e-09 2.09217e-09 -2.90554 0.965183 -0.102902 -2.40234e-09 -7.07134e-09 2.09217e-09 -10.2786 0.731801 -0.0259123 -2.40233e-09 -7.07133e-09 2.09216e-09 -2.22167 -0.733487 0.20892 -2.03217e-16 0.0 -3.88251e-19 -7.92921 -57.4063 9.25195 -0.882706 55.2494 0.906315 -0.791971 -13.4457 -1.36227 2.03217e-16 0.0 3.88251e-19 8.14768 -20.968 31.4305 1.88302 69.7291 -2.73736 -0.779955 -9.8302 -4.05396
150.964 75.7924 -65.4538 -175.166 -70.8697 189.614 12.8602 4.76358 -9.69156 -5.90573 0.000820863 -2.5783 1.90758 14.8017 11.1333 1.97931 -49.2229 23.6906 -0.0 0.0 0.0 -0.0 0.0 0.0 2.7718e-13 -2.06236e-13 -5.94817e-13 75.4796 40.595 4.85944 -23.6103 -18.3938 48.3422 -0.155779 -11.156 -1.58832 -4.53159e-10 1.85801e-09 1.68908e-10 -7.79525e-10 3.21453e-09 2.87895e-10 -4.53157e-10 1.85801e-09 1.68897e-10 7.73091 5.47488 0.417314 -4.53162e-10 1.858e-09 1.6892e-10 2.90554 0.965183 0.102902 -4.53154e-10 1.85801e-09 1.68903e-10 10.2786 0.731801 0.0259123 -4.53166e-10 1.85801e-09 1.68913e-10 2.22167 -0.733487 -0.20892 2.77226e-13 -2.06204e-13 -5.95052e-13 -6.16846 58.4347 -67.7937 22.7934 -16.9952 -46.002 0.0210352 3.97456 -0.559494 -3.66478e-09 -1.00546e-08 3.5045e-09 -6.33478e-09 -1.73726e-08 6.08933e-09 -3.66481e-09 -1.00546e-08 3.50451e-09 -7.73091 5.47488 -0.417314 -3.6648e-09 -1.00546e-08 3.5045e-09 -2.90554 0.965183 -0.102902 -3.66479e-09 -1.00546e-08 3.5045e-09 -10.2786 0.731801 -0.0259123 -3.66478e-09 -1.00546e-08 3.50449e-09 -2.22167 -0.733487 0.20892 -2.03217e-16 0.0 -3.88251e-19 -9.20845 -57.3239 7.87603 -0.900718 55.5221 0.896548 -0.469489 -15.2068 -0.500381 2.03217e-16 0.0 3.88251e-19 10.0973 -21.8527 32.8462 2.3101 72.3569 -3.15048 -0.68462 -9.48501 -3.59
